<?xml version="1.0" standalone="no"?>
<!DOCTYPE svg PUBLIC "-//W3C//DTD SVG 20010904//EN"
 "http://www.w3.org/TR/2001/REC-SVG-20010904/DTD/svg10.dtd">
<svg version="1.0" xmlns="http://www.w3.org/2000/svg"
 width="270.000000pt" height="270.000000pt" viewBox="0 0 270.000000 270.000000"
 preserveAspectRatio="xMidYMid meet">
<metadata>
Created by potrace 1.14, written by Peter Selinger 2001-2017
</metadata>
<g transform="translate(0.000000,270.000000) scale(0.100000,-0.100000)"
fill="#000000" stroke="none">
<path d="M175 2647 c-55 -22 -75 -37 -103 -80 l-27 -42 0 -1176 0 -1176 29
-41 c16 -23 45 -52 65 -65 l36 -22 1175 0 1175 0 44 30 c24 17 54 48 65 70 21
40 21 43 21 1212 l0 1171 -30 43 c-16 23 -48 52 -70 63 -40 21 -45 21 -1195
23 -868 1 -1162 -1 -1185 -10z"/>
</g>
</svg>
